<?xml version="1.0" encoding="UTF-8"?>
<svg xmlns="http://www.w3.org/2000/svg" xmlns:xlink="http://www.w3.org/1999/xlink" width="100%" height="100%" viewBox="0 0 576 576" preserveAspectRatio="xMidYMid meet">
<title>Hilbert curve</title>
<style type="text/css" id="style_css_sheet">
<![CDATA[
/* */
path {
position: absolute;
stroke:black;
fill:none;
stroke-width:2;
stroke-linecap:round;
stroke-linejoin:round;
}
]]>
</style>
	<rect x="0" y="0" width="576" height="576" stroke="black" fill="none"/>
  <g transform="translate(-47,47)">
    <path d="M 288,288"/>
    <path d="M 48,528"/>
    <path d="m 48,528 0,-9.6 9.6,0 0,9.6 9.6,0 9.6,0 0,-9.6 -9.6,0 0,-9.6 9.6,0 0,-9.6 -9.6,0 -9.6,0 0,9.6 -9.6,0 0,-9.6 0,-9.6 9.6,0 0,-9.6 -9.6,0 0,-9.6 0,-9.6 9.6,0 0,9.6 9.6,0 0,-9.6 9.6,0 0,9.6 0,9.6 -9.6,0 0,9.6 9.6,0 9.6,0 9.6,0 0,-9.6 -9.6,0 0,-9.6 0,-9.6 9.6,0 0,9.6 9.6,0 0,-9.6 9.6,0 0,9.6 0,9.6 -9.6,0 0,9.6 9.6,0 0,9.6 0,9.6 -9.6,0 0,-9.6 -9.6,0 -9.6,0 0,9.6 9.6,0 0,9.6 -9.6,0 0,9.6 9.6,0 9.6,0 0,-9.6 9.6,0 0,9.6 9.6,0 9.6,0 0,-9.6 -9.6,0 0,-9.6 0,-9.6 9.6,0 0,9.6 9.6,0 0,-9.6 9.6,0 0,9.6 0,9.6 -9.6,0 0,9.6 9.6,0 9.6,0 0,-9.6 9.6,0 0,9.6 9.6,0 9.6,0 0,-9.6 -9.6,0 0,-9.6 9.6,0 0,-9.6 -9.6,0 -9.6,0 0,9.6 -9.6,0 0,-9.6 0,-9.6 0,-9.6 9.6,0 0,9.6 9.6,0 9.6,0 0,-9.6 -9.6,0 0,-9.6 9.6,0 0,-9.6 -9.6,0 -9.6,0 0,9.6 -9.6,0 0,-9.6 -9.6,0 -9.6,0 0,9.6 9.6,0 0,9.6 0,9.6 -9.6,0 0,-9.6 -9.6,0 0,9.6 -9.6,0 0,-9.6 0,-9.6 9.6,0 0,-9.6 -9.6,0 0,-9.6 9.6,0 0,-9.6 -9.6,0 0,-9.6 0,-9.6 9.6,0 0,9.6 9.6,0 0,-9.6 9.6,0 0,9.6 0,9.6 -9.6,0 0,9.6 9.6,0 9.6,0 0,-9.6 9.6,0 0,9.6 9.6,0 9.6,0 0,-9.6 -9.6,0 0,-9.6 9.6,0 0,-9.6 -9.6,0 -9.6,0 0,9.6 -9.6,0 0,-9.6 0,-9.6 0,-9.6 9.6,0 0,9.6 9.6,0 9.6,0 0,-9.6 -9.6,0 0,-9.6 9.6,0 0,-9.6 -9.6,0 -9.6,0 0,9.6 -9.6,0 0,-9.6 -9.6,0 -9.6,0 0,9.6 9.6,0 0,9.6 0,9.6 -9.6,0 0,-9.6 -9.6,0 0,9.6 -9.6,0 0,-9.6 0,-9.6 9.6,0 0,-9.6 -9.6,0 -9.6,0 0,9.6 -9.6,0 0,-9.6 -9.6,0 -9.6,0 0,9.6 9.6,0 0,9.6 -9.6,0 0,9.6 9.6,0 9.6,0 0,-9.6 9.6,0 0,9.6 0,9.6 -9.6,0 0,9.6 9.6,0 0,9.6 0,9.6 -9.6,0 0,-9.6 -9.6,0 0,9.6 -9.6,0 0,-9.6 0,-9.6 9.6,0 0,-9.6 -9.6,0 -9.6,0 -9.6,0 0,9.6 9.6,0 0,9.6 0,9.6 -9.6,0 0,-9.6 -9.6,0 0,9.6 -9.6,0 0,-9.6 0,-9.6 9.6,0 0,-9.6 -9.6,0 0,-9.6 0,-9.6 9.6,0 0,9.6 9.6,0 9.6,0 0,-9.6 -9.6,0 0,-9.6 9.6,0 0,-9.6 -9.6,0 -9.6,0 0,9.6 -9.6,0 0,-9.6 0,-9.6 9.6,0 0,-9.6 -9.6,0 0,-9.6 0,-9.6 9.6,0 0,9.6 9.6,0 0,-9.6 9.6,0 0,9.6 0,9.6 -9.6,0 0,9.6 9.6,0 9.6,0 0,-9.6 9.6,0 0,9.6 9.6,0 9.6,0 0,-9.6 -9.6,0 0,-9.6 9.6,0 0,-9.6 -9.6,0 -9.6,0 0,9.6 -9.6,0 0,-9.6 0,-9.6 0,-9.6 9.6,0 0,9.6 9.6,0 9.6,0 0,-9.6 -9.6,0 0,-9.6 9.6,0 0,-9.6 -9.6,0 -9.6,0 0,9.6 -9.6,0 0,-9.6 -9.6,0 -9.6,0 0,9.6 9.6,0 0,9.6 0,9.6 -9.6,0 0,-9.6 -9.6,0 0,9.6 -9.6,0 0,-9.6 0,-9.6 9.6,0 0,-9.6 -9.6,0 0,-9.6 0,-9.6 9.6,0 0,9.6 9.6,0 9.6,0 0,-9.6 -9.6,0 0,-9.6 9.6,0 0,-9.6 -9.6,0 -9.6,0 0,9.6 -9.6,0 0,-9.6 0,-9.6 9.6,0 0,-9.6 -9.6,0 0,-9.6 0,-9.6 9.6,0 0,9.6 9.6,0 0,-9.6 9.6,0 0,9.6 0,9.6 -9.6,0 0,9.6 9.6,0 9.6,0 9.6,0 0,-9.6 -9.6,0 0,-9.6 0,-9.6 9.6,0 0,9.6 9.6,0 0,-9.6 9.6,0 0,9.6 0,9.6 -9.6,0 0,9.6 9.6,0 0,9.6 0,9.6 -9.6,0 0,-9.6 -9.6,0 -9.6,0 0,9.6 9.6,0 0,9.6 -9.6,0 0,9.6 9.6,0 9.6,0 0,-9.6 9.6,0 0,9.6 9.6,0 0,-9.6 9.6,0 0,9.6 9.6,0 9.6,0 0,-9.6 -9.6,0 0,-9.6 9.6,0 0,-9.6 -9.6,0 -9.6,0 0,9.6 -9.6,0 0,-9.6 0,-9.6 9.6,0 0,-9.6 -9.6,0 0,-9.6 0,-9.6 9.6,0 0,9.6 9.6,0 0,-9.6 9.6,0 0,9.6 0,9.6 -9.6,0 0,9.6 9.6,0 9.6,0 9.6,0 0,-9.6 -9.6,0 0,-9.6 0,-9.6 9.6,0 0,9.6 9.6,0 0,-9.6 9.6,0 0,9.6 0,9.6 -9.6,0 0,9.6 9.6,0 0,9.6 0,9.6 -9.6,0 0,-9.6 -9.6,0 -9.6,0 0,9.6 9.6,0 0,9.6 -9.6,0 0,9.6 9.6,0 9.6,0 0,-9.6 9.6,0 0,9.6 0,9.6 -9.6,0 0,9.6 9.6,0 0,9.6 0,9.6 -9.6,0 0,-9.6 -9.6,0 0,9.6 -9.6,0 0,-9.6 0,-9.6 9.6,0 0,-9.6 -9.6,0 -9.6,0 0,9.6 -9.6,0 0,-9.6 -9.6,0 -9.6,0 0,9.6 9.6,0 0,9.6 -9.6,0 0,9.6 9.6,0 9.6,0 0,-9.6 9.6,0 0,9.6 0,9.6 0,9.6 -9.6,0 0,-9.6 -9.6,0 -9.6,0 0,9.6 9.6,0 0,9.6 -9.6,0 0,9.6 9.6,0 9.6,0 0,-9.6 9.6,0 0,9.6 9.6,0 9.6,0 0,-9.6 -9.6,0 0,-9.6 0,-9.6 9.6,0 0,9.6 9.6,0 0,-9.6 9.6,0 0,9.6 0,9.6 -9.6,0 0,9.6 9.6,0 9.6,0 9.6,0 0,-9.6 -9.6,0 0,-9.6 0,-9.6 9.6,0 0,9.6 9.6,0 0,-9.6 9.6,0 0,9.6 0,9.6 -9.6,0 0,9.6 9.6,0 9.6,0 0,-9.6 9.6,0 0,9.6 9.6,0 9.6,0 0,-9.6 -9.6,0 0,-9.6 9.6,0 0,-9.6 -9.6,0 -9.6,0 0,9.6 -9.6,0 0,-9.6 0,-9.6 0,-9.6 9.6,0 0,9.6 9.6,0 9.6,0 0,-9.6 -9.6,0 0,-9.6 9.6,0 0,-9.6 -9.6,0 -9.6,0 0,9.6 -9.6,0 0,-9.6 -9.6,0 -9.6,0 0,9.6 9.6,0 0,9.6 0,9.6 -9.6,0 0,-9.6 -9.6,0 0,9.6 -9.6,0 0,-9.6 0,-9.6 9.6,0 0,-9.6 -9.6,0 0,-9.6 0,-9.6 9.6,0 0,9.6 9.6,0 9.6,0 0,-9.6 -9.6,0 0,-9.6 9.6,0 0,-9.6 -9.6,0 -9.6,0 0,9.6 -9.6,0 0,-9.6 0,-9.6 9.6,0 0,-9.6 -9.6,0 0,-9.6 0,-9.6 9.6,0 0,9.6 9.6,0 0,-9.6 9.6,0 0,9.6 0,9.6 -9.6,0 0,9.6 9.6,0 9.6,0 9.6,0 0,-9.6 -9.6,0 0,-9.6 0,-9.6 9.6,0 0,9.6 9.6,0 0,-9.6 9.6,0 0,9.6 0,9.6 -9.6,0 0,9.6 9.6,0 0,9.6 0,9.6 -9.6,0 0,-9.6 -9.6,0 -9.6,0 0,9.6 9.6,0 0,9.6 -9.6,0 0,9.6 9.6,0 9.6,0 0,-9.6 9.6,0 0,9.6 9.6,0 0,-9.6 9.6,0 0,9.6 9.6,0 9.6,0 0,-9.6 -9.6,0 0,-9.6 9.6,0 0,-9.6 -9.6,0 -9.6,0 0,9.6 -9.6,0 0,-9.6 0,-9.6 9.6,0 0,-9.6 -9.6,0 0,-9.6 0,-9.6 9.6,0 0,9.6 9.6,0 0,-9.6 9.6,0 0,9.6 0,9.6 -9.6,0 0,9.6 9.6,0 9.6,0 9.6,0 0,-9.6 -9.6,0 0,-9.6 0,-9.6 9.6,0 0,9.6 9.6,0 0,-9.6 9.6,0 0,9.6 0,9.6 -9.6,0 0,9.6 9.6,0 0,9.6 0,9.6 -9.6,0 0,-9.6 -9.6,0 -9.6,0 0,9.6 9.6,0 0,9.6 -9.6,0 0,9.6 9.6,0 9.6,0 0,-9.6 9.6,0 0,9.6 0,9.6 -9.6,0 0,9.6 9.6,0 0,9.6 0,9.6 -9.6,0 0,-9.6 -9.6,0 0,9.6 -9.6,0 0,-9.6 0,-9.6 9.6,0 0,-9.6 -9.6,0 -9.6,0 0,9.6 -9.6,0 0,-9.6 -9.6,0 -9.6,0 0,9.6 9.6,0 0,9.6 -9.6,0 0,9.6 9.6,0 9.6,0 0,-9.6 9.6,0 0,9.6 0,9.6 0,9.6 -9.6,0 0,-9.6 -9.6,0 -9.6,0 0,9.6 9.6,0 0,9.6 -9.6,0 0,9.6 9.6,0 9.6,0 0,-9.6 9.6,0 0,9.6 9.6,0 9.6,0 0,-9.6 -9.6,0 0,-9.6 0,-9.6 9.6,0 0,9.6 9.6,0 0,-9.6 9.6,0 0,9.6 0,9.6 -9.6,0 0,9.6 9.6,0 0,9.6 0,9.6 -9.6,0 0,-9.6 -9.6,0 -9.6,0 0,9.6 9.6,0 0,9.6 -9.6,0 0,9.6 9.6,0 9.6,0 0,-9.6 9.6,0 0,9.6 0,9.6 -9.6,0 0,9.6 9.6,0 0,9.6 0,9.6 -9.6,0 0,-9.6 -9.6,0 0,9.6 -9.6,0 0,-9.6 0,-9.6 9.6,0 0,-9.6 -9.6,0 -9.6,0 -9.6,0 0,9.6 9.6,0 0,9.6 0,9.6 -9.6,0 0,-9.6 -9.6,0 0,9.6 -9.6,0 0,-9.6 0,-9.6 9.6,0 0,-9.6 -9.6,0 0,-9.6 0,-9.6 9.6,0 0,9.6 9.6,0 9.6,0 0,-9.6 -9.6,0 0,-9.6 9.6,0 0,-9.6 -9.6,0 -9.6,0 0,9.6 -9.6,0 0,-9.6 -9.6,0 -9.6,0 0,9.6 9.6,0 0,9.6 0,9.6 -9.6,0 0,-9.6 -9.6,0 0,9.6 -9.6,0 0,-9.6 0,-9.6 9.6,0 0,-9.6 -9.6,0 -9.6,0 0,9.6 -9.6,0 0,-9.6 -9.6,0 -9.6,0 0,9.6 9.6,0 0,9.6 -9.6,0 0,9.6 9.6,0 9.6,0 0,-9.6 9.6,0 0,9.6 0,9.6 0,9.6 -9.6,0 0,-9.6 -9.6,0 -9.6,0 0,9.6 9.6,0 0,9.6 -9.6,0 0,9.6 9.6,0 9.6,0 0,-9.6 9.6,0 0,9.6 9.6,0 9.6,0 0,-9.6 -9.6,0 0,-9.6 0,-9.6 9.6,0 0,9.6 9.6,0 0,-9.6 9.6,0 0,9.6 0,9.6 -9.6,0 0,9.6 9.6,0 0,9.6 -9.6,0 0,9.6 9.6,0 0,9.6 0,9.6 -9.6,0 0,-9.6 -9.6,0 0,9.6 -9.6,0 0,-9.6 0,-9.6 9.6,0 0,-9.6 -9.6,0 -9.6,0 0,9.6 -9.6,0 0,-9.6 -9.6,0 -9.6,0 0,9.6 9.6,0 0,9.6 -9.6,0 0,9.6 9.6,0 9.6,0 0,-9.6 9.6,0 0,9.6 0,9.6 0,9.6 -9.6,0 0,-9.6 -9.6,0 -9.6,0 0,9.6 9.6,0 0,9.6 -9.6,0 0,9.6 9.6,0 9.6,0 0,-9.6 9.6,0 0,9.6 9.6,0 9.6,0 0,-9.6 -9.6,0 0,-9.6 0,-9.6 9.6,0 0,9.6 9.6,0 0,-9.6 9.6,0 0,9.6 0,9.6 -9.6,0 0,9.6 9.6,0 9.6,0 0,-9.6 9.6,0 0,9.6 9.6,0 9.6,0 0,-9.6 -9.6,0 0,-9.6 9.6,0 0,-9.6 -9.6,0 -9.6,0 0,9.6 -9.6,0 0,-9.6 0,-9.6 9.6,0 0,-9.6 -9.6,0 0,-9.6 0,-9.6 9.6,0 0,9.6 9.6,0 0,-9.6 9.6,0 0,9.6 0,9.6 -9.6,0 0,9.6 9.6,0 9.6,0 9.6,0 0,-9.6 -9.6,0 0,-9.6 0,-9.6 9.6,0 0,9.6 9.6,0 0,-9.6 9.6,0 0,9.6 0,9.6 -9.6,0 0,9.6 9.6,0 0,9.6 0,9.6 -9.6,0 0,-9.6 -9.6,0 -9.6,0 0,9.6 9.6,0 0,9.6 -9.6,0 0,9.6 9.6,0 9.6,0 0,-9.6 9.6,0 0,9.6 9.6,0 9.6,0 0,-9.6 -9.6,0 0,-9.6 0,-9.6 9.6,0 0,9.6 9.6,0 0,-9.6 9.6,0 0,9.6 0,9.6 -9.6,0 0,9.6 9.6,0 9.6,0 0,-9.6 9.6,0 0,9.6 9.6,0 9.6,0 0,-9.6 -9.6,0 0,-9.6 9.6,0 0,-9.6 -9.6,0 -9.6,0 0,9.6 -9.6,0 0,-9.6 0,-9.6 0,-9.6 9.6,0 0,9.6 9.6,0 9.6,0 0,-9.6 -9.6,0 0,-9.6 9.6,0 0,-9.6 -9.6,0 -9.6,0 0,9.6 -9.6,0 0,-9.6 -9.6,0 -9.6,0 0,9.6 9.6,0 0,9.6 0,9.6 -9.6,0 0,-9.6 -9.6,0 0,9.6 -9.6,0 0,-9.6 0,-9.6 9.6,0 0,-9.6 -9.6,0 0,-9.6 0,-9.6 9.6,0 0,9.6 9.6,0 9.6,0 0,-9.6 -9.6,0 0,-9.6 9.6,0 0,-9.6 -9.6,0 -9.6,0 0,9.6 -9.6,0 0,-9.6 0,-9.6 9.6,0 0,-9.6 -9.6,0 0,-9.6 0,-9.6 9.6,0 0,9.6 9.6,0 0,-9.6 9.6,0 0,9.6 0,9.6 -9.6,0 0,9.6 9.6,0 9.6,0 9.6,0 0,-9.6 -9.6,0 0,-9.6 0,-9.6 9.6,0 0,9.6 9.6,0 0,-9.6 9.6,0 0,9.6 0,9.6 -9.6,0 0,9.6 9.6,0 0,9.6 0,9.6 -9.6,0 0,-9.6 -9.6,0 -9.6,0 0,9.6 9.6,0 0,9.6 -9.6,0 0,9.6 9.6,0 9.6,0 0,-9.6 9.6,0 0,9.6 9.6,0 0,-9.6 9.6,0 0,9.6 9.6,0 9.6,0 0,-9.6 -9.6,0 0,-9.6 9.6,0 0,-9.6 -9.6,0 -9.6,0 0,9.6 -9.6,0 0,-9.6 0,-9.6 9.6,0 0,-9.6 -9.6,0 0,-9.6 0,-9.6 9.6,0 0,9.6 9.6,0 0,-9.6 9.6,0 0,9.6 0,9.6 -9.6,0 0,9.6 9.6,0 9.6,0 9.6,0 0,-9.6 -9.6,0 0,-9.6 0,-9.6 9.6,0 0,9.6 9.6,0 0,-9.6 9.6,0 0,9.6 0,9.6 -9.6,0 0,9.6 9.6,0 0,9.6 0,9.6 -9.6,0 0,-9.6 -9.6,0 -9.6,0 0,9.6 9.6,0 0,9.6 -9.6,0 0,9.6 9.6,0 9.6,0 0,-9.6 9.6,0 0,9.6 0,9.6 -9.6,0 0,9.6 9.6,0 0,9.6 0,9.6 -9.6,0 0,-9.6 -9.6,0 0,9.6 -9.6,0 0,-9.6 0,-9.6 9.6,0 0,-9.6 -9.6,0 -9.6,0 0,9.6 -9.6,0 0,-9.6 -9.6,0 -9.6,0 0,9.6 9.6,0 0,9.6 -9.6,0 0,9.6 9.6,0 9.6,0 0,-9.6 9.6,0 0,9.6 0,9.6 0,9.6 -9.6,0 0,-9.6 -9.6,0 -9.6,0 0,9.6 9.6,0 0,9.6 -9.6,0 0,9.6 9.6,0 9.6,0 0,-9.6 9.6,0 0,9.6 9.6,0 9.6,0 0,-9.6 -9.6,0 0,-9.6 0,-9.6 9.6,0 0,9.6 9.6,0 0,-9.6 9.6,0 0,9.6 0,9.6 -9.6,0 0,9.6 9.6,0 9.6,0 0,-9.6 9.6,0 0,9.6 9.6,0 9.6,0 0,-9.6 -9.6,0 0,-9.6 9.6,0 0,-9.6 -9.6,0 -9.6,0 0,9.6 -9.6,0 0,-9.6 0,-9.6 9.6,0 0,-9.6 -9.6,0 0,-9.6 0,-9.6 9.6,0 0,9.6 9.6,0 0,-9.6 9.6,0 0,9.6 0,9.6 -9.6,0 0,9.6 9.6,0 9.6,0 9.6,0 0,-9.6 -9.6,0 0,-9.6 0,-9.6 9.6,0 0,9.6 9.6,0 0,-9.6 9.6,0 0,9.6 0,9.6 -9.6,0 0,9.6 9.6,0 0,9.6 0,9.6 -9.6,0 0,-9.6 -9.6,0 -9.6,0 0,9.6 9.6,0 0,9.6 -9.6,0 0,9.6 9.6,0 9.6,0 0,-9.6 9.6,0 0,9.6 9.6,0 9.6,0 0,-9.6 -9.6,0 0,-9.6 0,-9.6 9.6,0 0,9.6 9.6,0 0,-9.6 9.6,0 0,9.6 0,9.6 -9.6,0 0,9.6 9.6,0 8.6,0 m 0,-67.2 -8.6,0 -9.6,0 0,9.6 9.6,0 0,9.6 0,9.6 -9.6,0 0,-9.6 -9.6,0 0,9.6 -9.6,0 0,-9.6 0,-9.6 9.6,0 0,-9.6 -9.6,0 0,-9.6 9.6,0 0,-9.6 -9.6,0 0,-9.6 0,-9.6 9.6,0 0,9.6 9.6,0 0,-9.6 9.6,0 0,9.6 0,9.6 -9.6,0 0,9.6 9.6,0 8.6,0 m 0,-67.2 -8.6,0 -9.6,0 0,9.6 9.6,0 0,9.6 0,9.6 -9.6,0 0,-9.6 -9.6,0 0,9.6 -9.6,0 0,-9.6 0,-9.6 9.6,0 0,-9.6 -9.6,0 -9.6,0 0,9.6 -9.6,0 0,-9.6 -9.6,0 -9.6,0 0,9.6 9.6,0 0,9.6 -9.6,0 0,9.6 9.6,0 9.6,0 0,-9.6 9.6,0 0,9.6 0,9.6 -9.6,0 0,9.6 9.6,0 0,9.6 0,9.6 -9.6,0 0,-9.6 -9.6,0 0,9.6 -9.6,0 0,-9.6 0,-9.6 9.6,0 0,-9.6 -9.6,0 -9.6,0 -9.6,0 0,9.6 9.6,0 0,9.6 0,9.6 -9.6,0 0,-9.6 -9.6,0 0,9.6 -9.6,0 0,-9.6 0,-9.6 9.6,0 0,-9.6 -9.6,0 0,-9.6 0,-9.6 9.6,0 0,9.6 9.6,0 9.6,0 0,-9.6 -9.6,0 0,-9.6 9.6,0 0,-9.6 -9.6,0 -9.6,0 0,9.6 -9.6,0 0,-9.6 0,-9.6 0,-9.6 9.6,0 0,9.6 9.6,0 9.6,0 0,-9.6 -9.6,0 0,-9.6 9.6,0 0,-9.6 -9.6,0 -9.6,0 0,9.6 -9.6,0 0,-9.6 0,-9.6 9.6,0 0,-9.6 -9.6,0 0,-9.6 0,-9.6 9.6,0 0,9.6 9.6,0 0,-9.6 9.6,0 0,9.6 0,9.6 -9.6,0 0,9.6 9.6,0 9.6,0 9.6,0 0,-9.6 -9.6,0 0,-9.6 0,-9.6 9.6,0 0,9.6 9.6,0 0,-9.6 9.6,0 0,9.6 0,9.6 -9.6,0 0,9.6 9.6,0 0,9.6 0,9.6 -9.6,0 0,-9.6 -9.6,0 -9.6,0 0,9.6 9.6,0 0,9.6 -9.6,0 0,9.6 9.6,0 9.6,0 0,-9.6 9.6,0 0,9.6 9.6,0 9.6,0 0,-9.6 -9.6,0 0,-9.6 0,-9.6 9.6,0 0,9.6 9.6,0 0,-9.6 9.6,0 0,9.6 0,9.6 -9.6,0 0,9.6 9.6,0 8.6,0 m 0,-67.2 -8.6,0 -9.6,0 0,9.6 9.6,0 0,9.6 0,9.6 -9.6,0 0,-9.6 -9.6,0 0,9.6 -9.6,0 0,-9.6 0,-9.6 9.6,0 0,-9.6 -9.6,0 0,-9.6 9.6,0 0,-9.6 -9.6,0 0,-9.6 0,-9.6 9.6,0 0,9.6 9.6,0 0,-9.6 9.6,0 0,9.6 0,9.6 -9.6,0 0,9.6 9.6,0 8.6,0 m 0,-67.2 -8.6,0 -9.6,0 0,9.6 9.6,0 0,9.6 0,9.6 -9.6,0 0,-9.6 -9.6,0 0,9.6 -9.6,0 0,-9.6 0,-9.6 9.6,0 0,-9.6 -9.6,0 -9.6,0 0,9.6 -9.6,0 0,-9.6 -9.6,0 -9.6,0 0,9.6 9.6,0 0,9.6 -9.6,0 0,9.6 9.6,0 9.6,0 0,-9.6 9.6,0 0,9.6 0,9.6 -9.6,0 0,9.6 9.6,0 0,9.6 0,9.6 -9.6,0 0,-9.6 -9.6,0 0,9.6 -9.6,0 0,-9.6 0,-9.6 9.6,0 0,-9.6 -9.6,0 -9.6,0 -9.6,0 0,9.6 9.6,0 0,9.6 0,9.6 -9.6,0 0,-9.6 -9.6,0 0,9.6 -9.6,0 0,-9.6 0,-9.6 9.6,0 0,-9.6 -9.6,0 0,-9.6 0,-9.6 9.6,0 0,9.6 9.6,0 9.6,0 0,-9.6 -9.6,0 0,-9.6 9.6,0 0,-9.6 -9.6,0 -9.6,0 0,9.6 -9.6,0 0,-9.6 -9.6,0 -9.6,0 0,9.6 9.6,0 0,9.6 0,9.6 -9.6,0 0,-9.6 -9.6,0 0,9.6 -9.6,0 0,-9.6 0,-9.6 9.6,0 0,-9.6 -9.6,0 -9.6,0 0,9.6 -9.6,0 0,-9.6 -9.6,0 -9.6,0 0,9.6 9.6,0 0,9.6 -9.6,0 0,9.6 9.6,0 9.6,0 0,-9.6 9.6,0 0,9.6 0,9.6 0,9.6 -9.6,0 0,-9.6 -9.6,0 -9.6,0 0,9.6 9.6,0 0,9.6 -9.6,0 0,9.6 9.6,0 9.6,0 0,-9.6 9.6,0 0,9.6 9.6,0 9.6,0 0,-9.6 -9.6,0 0,-9.6 0,-9.6 9.6,0 0,9.6 9.6,0 0,-9.6 9.6,0 0,9.6 0,9.6 -9.6,0 0,9.6 9.6,0 0,9.6 0,9.6 -9.6,0 0,-9.6 -9.6,0 -9.6,0 0,9.6 9.6,0 0,9.6 -9.6,0 0,9.6 9.6,0 9.6,0 0,-9.6 9.6,0 0,9.6 0,9.6 -9.6,0 0,9.6 9.6,0 0,9.6 0,9.6 -9.6,0 0,-9.6 -9.6,0 0,9.6 -9.6,0 0,-9.6 0,-9.6 9.6,0 0,-9.6 -9.6,0 -9.6,0 -9.6,0 0,9.6 9.6,0 0,9.6 0,9.6 -9.6,0 0,-9.6 -9.6,0 0,9.6 -9.6,0 0,-9.6 0,-9.6 9.6,0 0,-9.6 -9.6,0 0,-9.6 0,-9.6 9.6,0 0,9.6 9.6,0 9.6,0 0,-9.6 -9.6,0 0,-9.6 9.6,0 0,-9.6 -9.6,0 -9.6,0 0,9.6 -9.6,0 0,-9.6 -9.6,0 0,9.6 -9.6,0 0,-9.6 -9.6,0 -9.6,0 0,9.6 9.6,0 0,9.6 -9.6,0 0,9.6 9.6,0 9.6,0 0,-9.6 9.6,0 0,9.6 0,9.6 -9.6,0 0,9.6 9.6,0 0,9.6 0,9.6 -9.6,0 0,-9.6 -9.6,0 0,9.6 -9.6,0 0,-9.6 0,-9.6 9.6,0 0,-9.6 -9.6,0 -9.6,0 -9.6,0 0,9.6 9.6,0 0,9.6 0,9.6 -9.6,0 0,-9.6 -9.6,0 0,9.6 -9.6,0 0,-9.6 0,-9.6 9.6,0 0,-9.6 -9.6,0 0,-9.6 0,-9.6 9.6,0 0,9.6 9.6,0 9.6,0 0,-9.6 -9.6,0 0,-9.6 9.6,0 0,-9.6 -9.6,0 -9.6,0 0,9.6 -9.6,0 0,-9.6 0,-9.6 9.6,0 0,-9.6 -9.6,0 0,-9.6 0,-9.6 9.6,0 0,9.6 9.6,0 0,-9.6 9.6,0 0,9.6 0,9.6 -9.6,0 0,9.6 9.6,0 9.6,0 0,-9.6 9.6,0 0,9.6 9.6,0 9.6,0 0,-9.6 -9.6,0 0,-9.6 9.6,0 0,-9.6 -9.6,0 -9.6,0 0,9.6 -9.6,0 0,-9.6 0,-9.6 0,-9.6 9.6,0 0,9.6 9.6,0 9.6,0 0,-9.6 -9.6,0 0,-9.6 9.6,0 0,-9.6 -9.6,0 -9.6,0 0,9.6 -9.6,0 0,-9.6 -9.6,0 -9.6,0 0,9.6 9.6,0 0,9.6 0,9.6 -9.6,0 0,-9.6 -9.6,0 0,9.6 -9.6,0 0,-9.6 0,-9.6 9.6,0 0,-9.6 -9.6,0 0,-9.6 9.6,0 0,-9.6 -9.6,0 0,-9.6 0,-9.6 9.6,0 0,9.6 9.6,0 0,-9.6 9.6,0 0,9.6 0,9.6 -9.6,0 0,9.6 9.6,0 9.6,0 0,-9.6 9.6,0 0,9.6 9.6,0 9.6,0 0,-9.6 -9.6,0 0,-9.6 9.6,0 0,-9.6 -9.6,0 -9.6,0 0,9.6 -9.6,0 0,-9.6 0,-9.6 0,-9.6 9.6,0 0,9.6 9.6,0 9.6,0 0,-9.6 -9.6,0 0,-9.6 9.6,0 0,-9.6 -9.6,0 -9.6,0 0,9.6 -9.6,0 0,-9.6 -9.6,0 -9.6,0 0,9.6 9.6,0 0,9.6 0,9.6 -9.6,0 0,-9.6 -9.6,0 0,9.6 -9.6,0 0,-9.6 0,-9.6 9.6,0 0,-9.6 -9.6,0 0,-9.6 0,-9.6 9.6,0 0,9.6 9.6,0 9.6,0 0,-9.6 -9.6,0 0,-9.6 9.6,0 0,-9.6 -9.6,0 -9.6,0 0,9.6 -9.6,0 0,-9.6 0,-9.6 9.6,0 0,-9.6 -9.6,0 0,-9.6 0,-9.6 9.6,0 0,9.6 9.6,0 0,-9.6 9.6,0 0,9.6 0,9.6 -9.6,0 0,9.6 9.6,0 9.6,0 9.6,0 0,-9.6 -9.6,0 0,-9.6 0,-9.6 9.6,0 0,9.6 9.6,0 0,-9.6 9.6,0 0,9.6 0,9.6 -9.6,0 0,9.6 9.6,0 0,9.6 0,9.6 -9.6,0 0,-9.6 -9.6,0 -9.6,0 0,9.6 9.6,0 0,9.6 -9.6,0 0,9.6 9.6,0 9.6,0 0,-9.6 9.6,0 0,9.6 9.6,0 0,-9.6 9.6,0 0,9.6 9.6,0 9.6,0 0,-9.6 -9.6,0 0,-9.6 9.6,0 0,-9.6 -9.6,0 -9.6,0 0,9.6 -9.6,0 0,-9.6 0,-9.6 9.6,0 0,-9.6 -9.6,0 0,-9.6 0,-9.6 9.6,0 0,9.6 9.6,0 0,-9.6 9.6,0 0,9.6 0,9.6 -9.6,0 0,9.6 9.6,0 9.6,0 9.6,0 0,-9.6 -9.6,0 0,-9.6 0,-9.6 9.6,0 0,9.6 9.6,0 0,-9.6 9.6,0 0,9.6 0,9.6 -9.6,0 0,9.6 9.6,0 0,9.6 0,9.6 -9.6,0 0,-9.6 -9.6,0 -9.6,0 0,9.6 9.6,0 0,9.6 -9.6,0 0,9.6 9.6,0 9.6,0 0,-9.6 9.6,0 0,9.6 0,9.6 -9.6,0 0,9.6 9.6,0 0,9.6 0,9.6 -9.6,0 0,-9.6 -9.6,0 0,9.6 -9.6,0 0,-9.6 0,-9.6 9.6,0 0,-9.6 -9.6,0 -9.6,0 0,9.6 -9.6,0 0,-9.6 -9.6,0 -9.6,0 0,9.6 9.6,0 0,9.6 -9.6,0 0,9.6 9.6,0 9.6,0 0,-9.6 9.6,0 0,9.6 0,9.6 0,9.6 -9.6,0 0,-9.6 -9.6,0 -9.6,0 0,9.6 9.6,0 0,9.6 -9.6,0 0,9.6 9.6,0 9.6,0 0,-9.6 9.6,0 0,9.6 9.6,0 9.6,0 0,-9.6 -9.6,0 0,-9.6 0,-9.6 9.6,0 0,9.6 9.6,0 0,-9.6 9.6,0 0,9.6 0,9.6 -9.6,0 0,9.6 9.6,0 9.6,0 0,-9.6 9.6,0 0,9.6 9.6,0 9.6,0 0,-9.6 -9.6,0 0,-9.6 9.6,0 0,-9.6 -9.6,0 -9.6,0 0,9.6 -9.6,0 0,-9.6 0,-9.6 9.6,0 0,-9.6 -9.6,0 0,-9.6 0,-9.6 9.6,0 0,9.6 9.6,0 0,-9.6 9.6,0 0,9.6 0,9.6 -9.6,0 0,9.6 9.6,0 9.6,0 9.6,0 0,-9.6 -9.6,0 0,-9.6 0,-9.6 9.6,0 0,9.6 9.6,0 0,-9.6 9.6,0 0,9.6 0,9.6 -9.6,0 0,9.6 9.6,0 0,9.6 0,9.6 -9.6,0 0,-9.6 -9.6,0 -9.6,0 0,9.6 9.6,0 0,9.6 -9.6,0 0,9.6 9.6,0 9.6,0 0,-9.6 9.6,0 0,9.6 9.6,0 9.6,0 0,-9.6 -9.6,0 0,-9.6 0,-9.6 9.6,0 0,9.6 9.6,0 0,-9.6 9.6,0 0,9.6 0,9.6 -9.6,0 0,9.6 9.6,0 8.6,0 m 0,-67.2 -8.6,0 -9.6,0 0,9.6 9.6,0 0,9.6 0,9.6 -9.6,0 0,-9.6 -9.6,0 0,9.6 -9.6,0 0,-9.6 0,-9.6 9.6,0 0,-9.6 -9.6,0 0,-9.6 9.6,0 0,-9.6 -9.6,0 0,-9.6 0,-9.6 9.6,0 0,9.6 9.6,0 0,-9.6 9.6,0 0,9.6 0,9.6 -9.6,0 0,9.6 9.6,0 8.6,0 m 0,-67.2 -8.6,0 -9.6,0 0,9.6 9.6,0 0,9.6 0,9.6 -9.6,0 0,-9.6 -9.6,0 0,9.6 -9.6,0 0,-9.6 0,-9.6 9.6,0 0,-9.6 -9.6,0 -9.6,0 0,9.6 -9.6,0 0,-9.6 -9.6,0 -9.6,0 0,9.6 9.6,0 0,9.6 -9.6,0 0,9.6 9.6,0 9.6,0 0,-9.6 9.6,0 0,9.6 0,9.6 -9.6,0 0,9.6 9.6,0 0,9.6 0,9.6 -9.6,0 0,-9.6 -9.6,0 0,9.6 -9.6,0 0,-9.6 0,-9.6 9.6,0 0,-9.6 -9.6,0 -9.6,0 -9.6,0 0,9.6 9.6,0 0,9.6 0,9.6 -9.6,0 0,-9.6 -9.6,0 0,9.6 -9.6,0 0,-9.6 0,-9.6 9.6,0 0,-9.6 -9.6,0 0,-9.6 0,-9.6 9.6,0 0,9.6 9.6,0 9.6,0 0,-9.6 -9.6,0 0,-9.6 9.6,0 0,-9.6 -9.6,0 -9.6,0 0,9.6 -9.6,0 0,-9.6 0,-9.6 0,-9.6 9.6,0 0,9.6 9.6,0 9.6,0 0,-9.6 -9.6,0 0,-9.6 9.6,0 0,-9.6 -9.6,0 -9.6,0 0,9.6 -9.6,0 0,-9.6 0,-9.6 9.6,0 0,-9.6 -9.6,0 0,-9.6 0,-9.6 9.6,0 0,9.6 9.6,0 0,-9.6 9.6,0 0,9.6 0,9.6 -9.6,0 0,9.6 9.6,0 9.6,0 9.6,0 0,-9.6 -9.6,0 0,-9.6 0,-9.6 9.6,0 0,9.6 9.6,0 0,-9.6 9.6,0 0,9.6 0,9.6 -9.6,0 0,9.6 9.6,0 0,9.6 0,9.6 -9.6,0 0,-9.6 -9.6,0 -9.6,0 0,9.6 9.6,0 0,9.6 -9.6,0 0,9.6 9.6,0 9.6,0 0,-9.6 9.6,0 0,9.6 9.6,0 9.6,0 0,-9.6 -9.6,0 0,-9.6 0,-9.6 9.6,0 0,9.6 9.6,0 0,-9.6 9.6,0 0,9.6 0,9.6 -9.6,0 0,9.6 9.6,0 8.6,0 m 0,-67.2 -8.6,0 -9.6,0 0,9.6 9.6,0 0,9.6 0,9.6 -9.6,0 0,-9.6 -9.6,0 0,9.6 -9.6,0 0,-9.6 0,-9.6 9.6,0 0,-9.6 -9.6,0 0,-9.6 9.6,0 0,-9.6 -9.6,0 0,-9.6 0,-9.6 9.6,0 0,9.6 9.6,0 0,-9.6 9.6,0 0,9.6 0,9.6 -9.6,0 0,9.6 9.6,0 8.6,0 m -47,-37.4 0,8.6 -9.6,0 0,9.6 9.6,0 0,9.6 0,9.6 -9.6,0 0,-9.6 -9.6,0 0,9.6 -9.6,0 0,-9.6 0,-9.6 9.6,0 0,-9.6 -9.6,0 -9.6,0 -9.6,0 0,9.6 9.6,0 0,9.6 0,9.6 -9.6,0 0,-9.6 -9.6,0 0,9.6 -9.6,0 0,-9.6 0,-9.6 9.6,0 0,-9.6 -9.6,0 0,-8.6 m -48,0 0,8.6 0,9.6 -9.6,0 0,-9.6 -9.6,0 -9.6,0 0,9.6 9.6,0 0,9.6 -9.6,0 0,9.6 9.6,0 9.6,0 0,-9.6 9.6,0 0,9.6 9.6,0 9.6,0 0,-9.6 -9.6,0 0,-9.6 0,-9.6 9.6,0 0,9.6 9.6,0 0,-9.6 9.6,0 0,9.6 0,9.6 -9.6,0 0,9.6 9.6,0 0,9.6 0,9.6 -9.6,0 0,-9.6 -9.6,0 -9.6,0 0,9.6 9.6,0 0,9.6 -9.6,0 0,9.6 9.6,0 9.6,0 0,-9.6 9.6,0 0,9.6 0,9.6 -9.6,0 0,9.6 9.6,0 0,9.6 0,9.6 -9.6,0 0,-9.6 -9.6,0 0,9.6 -9.6,0 0,-9.6 0,-9.6 9.6,0 0,-9.6 -9.6,0 -9.6,0 -9.6,0 0,9.6 9.6,0 0,9.6 0,9.6 -9.6,0 0,-9.6 -9.6,0 0,9.6 -9.6,0 0,-9.6 0,-9.6 9.6,0 0,-9.6 -9.6,0 0,-9.6 0,-9.6 9.6,0 0,9.6 9.6,0 9.6,0 0,-9.6 -9.6,0 0,-9.6 9.6,0 0,-9.6 -9.6,0 -9.6,0 0,9.6 -9.6,0 0,-9.6 -9.6,0 0,9.6 -9.6,0 0,-9.6 -9.6,0 -9.6,0 0,9.6 9.6,0 0,9.6 -9.6,0 0,9.6 9.6,0 9.6,0 0,-9.6 9.6,0 0,9.6 0,9.6 -9.6,0 0,9.6 9.6,0 0,9.6 0,9.6 -9.6,0 0,-9.6 -9.6,0 0,9.6 -9.6,0 0,-9.6 0,-9.6 9.6,0 0,-9.6 -9.6,0 -9.6,0 -9.6,0 0,9.6 9.6,0 0,9.6 0,9.6 -9.6,0 0,-9.6 -9.6,0 0,9.6 -9.6,0 0,-9.6 0,-9.6 9.6,0 0,-9.6 -9.6,0 0,-9.6 0,-9.6 9.6,0 0,9.6 9.6,0 9.6,0 0,-9.6 -9.6,0 0,-9.6 9.6,0 0,-9.6 -9.6,0 -9.6,0 0,9.6 -9.6,0 0,-9.6 0,-9.6 9.6,0 0,-9.6 -9.6,0 0,-9.6 0,-9.6 9.6,0 0,9.6 9.6,0 0,-9.6 9.6,0 0,9.6 0,9.6 -9.6,0 0,9.6 9.6,0 9.6,0 0,-9.6 9.6,0 0,9.6 9.6,0 9.6,0 0,-9.6 -9.6,0 0,-9.6 9.6,0 0,-9.6 -9.6,0 -9.6,0 0,9.6 -9.6,0 0,-9.6 0,-8.6 m -48,0 0,8.6 -9.6,0 0,9.6 9.6,0 0,9.6 0,9.6 -9.6,0 0,-9.6 -9.6,0 0,9.6 -9.6,0 0,-9.6 0,-9.6 9.6,0 0,-9.6 -9.6,0 -9.6,0 -9.6,0 0,9.6 9.6,0 0,9.6 0,9.6 -9.6,0 0,-9.6 -9.6,0 0,9.6 -9.6,0 0,-9.6 0,-9.6 9.6,0 0,-9.6 -9.6,0 m -48,-8.6 0,8.6 0,9.6 -9.6,0 0,-9.6 -9.6,0 -9.6,0 0,9.6 9.6,0 0,9.6 -9.6,0 0,9.6 9.6,0 9.6,0 0,-9.6 9.6,0 0,9.6 9.6,0 9.6,0 0,-9.6 -9.6,0 0,-9.6 0,-9.6 9.6,0 0,9.6 9.6,0 0,-9.6 9.6,0 0,9.6 0,9.6 -9.6,0 0,9.6 9.6,0 0,9.6 -9.6,0 0,9.6 9.6,0 0,9.6 0,9.6 -9.6,0 0,-9.6 -9.6,0 0,9.6 -9.6,0 0,-9.6 0,-9.6 9.6,0 0,-9.6 -9.6,0 -9.6,0 0,9.6 -9.6,0 0,-9.6 -9.6,0 -9.6,0 0,9.6 9.6,0 0,9.6 -9.6,0 0,9.6 9.6,0 9.6,0 0,-9.6 9.6,0 0,9.6 0,9.6 0,9.6 -9.6,0 0,-9.6 -9.6,0 -9.6,0 0,9.6 9.6,0 0,9.6 -9.6,0 0,9.6 9.6,0 9.6,0 0,-9.6 9.6,0 0,9.6 9.6,0 9.6,0 0,-9.6 -9.6,0 0,-9.6 0,-9.6 9.6,0 0,9.6 9.6,0 0,-9.6 9.6,0 0,9.6 0,9.6 -9.6,0 0,9.6 9.6,0 9.6,0 0,-9.6 9.6,0 0,9.6 9.6,0 9.6,0 0,-9.6 -9.6,0 0,-9.6 9.6,0 0,-9.6 -9.6,0 -9.6,0 0,9.6 -9.6,0 0,-9.6 0,-9.6 9.6,0 0,-9.6 -9.6,0 0,-9.6 0,-9.6 9.6,0 0,9.6 9.6,0 0,-9.6 9.6,0 0,9.6 0,9.6 -9.6,0 0,9.6 9.6,0 9.6,0 9.6,0 0,-9.6 -9.6,0 0,-9.6 0,-9.6 9.6,0 0,9.6 9.6,0 0,-9.6 9.6,0 0,9.6 0,9.6 -9.6,0 0,9.6 9.6,0 0,9.6 0,9.6 -9.6,0 0,-9.6 -9.6,0 -9.6,0 0,9.6 9.6,0 0,9.6 -9.6,0 0,9.6 9.6,0 9.6,0 0,-9.6 9.6,0 0,9.6 0,9.6 -9.6,0 0,9.6 9.6,0 0,9.6 0,9.6 -9.6,0 0,-9.6 -9.6,0 0,9.6 -9.6,0 0,-9.6 0,-9.6 9.6,0 0,-9.6 -9.6,0 -9.6,0 0,9.6 -9.6,0 0,-9.6 -9.6,0 -9.6,0 0,9.6 9.6,0 0,9.6 -9.6,0 0,9.6 9.6,0 9.6,0 0,-9.6 9.6,0 0,9.6 0,9.6 0,9.6 -9.6,0 0,-9.6 -9.6,0 -9.6,0 0,9.6 9.6,0 0,9.6 -9.6,0 0,9.6 9.6,0 9.6,0 0,-9.6 9.6,0 0,9.6 9.6,0 9.6,0 0,-9.6 -9.6,0 0,-9.6 0,-9.6 9.6,0 0,9.6 9.6,0 0,-9.6 9.6,0 0,9.6 0,9.6 -9.6,0 0,9.6 9.6,0 0,9.6 0,9.6 -9.6,0 0,-9.6 -9.6,0 -9.6,0 0,9.6 9.6,0 0,9.6 -9.6,0 0,9.6 9.6,0 9.6,0 0,-9.6 9.6,0 0,9.6 0,9.6 -9.6,0 0,9.6 9.6,0 0,9.6 0,9.6 -9.6,0 0,-9.6 -9.6,0 0,9.6 -9.6,0 0,-9.6 0,-9.6 9.6,0 0,-9.6 -9.6,0 -9.6,0 -9.6,0 0,9.6 9.6,0 0,9.6 0,9.6 -9.6,0 0,-9.6 -9.6,0 0,9.6 -9.6,0 0,-9.6 0,-9.6 9.6,0 0,-9.6 -9.6,0 0,-9.6 0,-9.6 9.6,0 0,9.6 9.6,0 9.6,0 0,-9.6 -9.6,0 0,-9.6 9.6,0 0,-9.6 -9.6,0 -9.6,0 0,9.6 -9.6,0 0,-9.6 -9.6,0 0,9.6 -9.6,0 0,-9.6 -9.6,0 -9.6,0 0,9.6 9.6,0 0,9.6 -9.6,0 0,9.6 9.6,0 9.6,0 0,-9.6 9.6,0 0,9.6 0,9.6 -9.6,0 0,9.6 9.6,0 0,9.6 0,9.6 -9.6,0 0,-9.6 -9.6,0 0,9.6 -9.6,0 0,-9.6 0,-9.6 9.6,0 0,-9.6 -9.6,0 -9.6,0 -9.6,0 0,9.6 9.6,0 0,9.6 0,9.6 -9.6,0 0,-9.6 -9.6,0 0,9.6 -9.6,0 0,-9.6 0,-9.6 9.6,0 0,-9.6 -9.6,0 0,-9.6 0,-9.6 9.6,0 0,9.6 9.6,0 9.6,0 0,-9.6 -9.6,0 0,-9.6 9.6,0 0,-9.6 -9.6,0 -9.6,0 0,9.6 -9.6,0 0,-9.6 0,-9.6 9.6,0 0,-9.6 -9.6,0 0,-9.6 0,-9.6 9.6,0 0,9.6 9.6,0 0,-9.6 9.6,0 0,9.6 0,9.6 -9.6,0 0,9.6 9.6,0 9.6,0 0,-9.6 9.6,0 0,9.6 9.6,0 9.6,0 0,-9.6 -9.6,0 0,-9.6 9.6,0 0,-9.6 -9.6,0 -9.6,0 0,9.6 -9.6,0 0,-9.6 0,-9.6 0,-9.6 9.6,0 0,9.6 9.6,0 9.6,0 0,-9.6 -9.6,0 0,-9.6 9.6,0 0,-9.6 -9.6,0 -9.6,0 0,9.6 -9.6,0 0,-9.6 -9.6,0 -9.6,0 0,9.6 9.6,0 0,9.6 0,9.6 -9.6,0 0,-9.6 -9.6,0 0,9.6 -9.6,0 0,-9.6 0,-9.6 9.6,0 0,-9.6 -9.6,0 -9.6,0 -9.6,0 0,9.6 9.6,0 0,9.6 0,9.6 -9.6,0 0,-9.6 -9.6,0 0,9.6 -9.6,0 0,-9.6 0,-9.6 9.6,0 0,-9.6 -9.6,0 -9.6,0 0,9.6 -9.6,0 0,-9.6 -9.6,0 -9.6,0 0,9.6 9.6,0 0,9.6 -9.6,0 0,9.6 9.6,0 9.6,0 0,-9.6 9.6,0 0,9.6 0,9.6 0,9.6 -9.6,0 0,-9.6 -9.6,0 -9.6,0 0,9.6 9.6,0 0,9.6 -9.6,0 0,9.6 9.6,0 9.6,0 0,-9.6 9.6,0 0,9.6 9.6,0 9.6,0 0,-9.6 -9.6,0 0,-9.6 0,-9.6 9.6,0 0,9.6 9.6,0 0,-9.6 9.6,0 0,9.6 0,9.6 -9.6,0 0,9.6 9.6,0 0,9.6 0,9.6 -9.6,0 0,-9.6 -9.6,0 -9.6,0 0,9.6 9.6,0 0,9.6 -9.6,0 0,9.6 9.6,0 9.6,0 0,-9.6 9.6,0 0,9.6 0,9.6 -9.6,0 0,9.6 9.6,0 0,9.6 0,9.6 -9.6,0 0,-9.6 -9.6,0 0,9.6 -9.6,0 0,-9.6 0,-9.6 9.6,0 0,-9.6 -9.6,0 -9.6,0 -9.6,0 0,9.6 9.6,0 0,9.6 0,9.6 -9.6,0 0,-9.6 -9.6,0 0,9.6 -9.6,0 0,-9.6 0,-9.6 9.6,0 0,-9.6 -9.6,0 0,-9.6 0,-9.6 9.6,0 0,9.6 9.6,0 9.6,0 0,-9.6 -9.6,0 0,-9.6 9.6,0 0,-9.6 -9.6,0 -9.6,0 0,9.6 -9.6,0 0,-9.6 -9.6,0 0,9.6 -9.6,0 0,-9.6 -9.6,0 -9.6,0 0,9.6 9.6,0 0,9.6 -9.6,0 0,9.6 9.6,0 9.6,0 0,-9.6 9.6,0 0,9.6 0,9.6 -9.6,0 0,9.6 9.6,0 0,9.6 0,9.6 -9.6,0 0,-9.6 -9.6,0 0,9.6 -9.6,0 0,-9.6 0,-9.6 9.6,0 0,-9.6 -9.6,0 -9.6,0 -9.6,0 0,9.6 9.6,0 0,9.6 0,9.6 -9.6,0 0,-9.6 -9.6,0 0,9.6 -9.6,0 0,-9.6 0,-9.6 9.6,0 0,-9.6 -9.6,0 0,-9.6 0,-9.6 9.6,0 0,9.6 9.6,0 9.6,0 0,-9.6 -9.6,0 0,-9.6 9.6,0 0,-9.6 -9.6,0 -9.6,0 0,9.6 -9.6,0 0,-9.6 0,-9.6 9.6,0 0,-9.6 -9.6,0 0,-9.6 0,-9.6 9.6,0 0,9.6 9.6,0 0,-9.6 9.6,0 0,9.6 0,9.6 -9.6,0 0,9.6 9.6,0 9.6,0 0,-9.6 9.6,0 0,9.6 9.6,0 9.6,0 0,-9.6 -9.6,0 0,-9.6 9.6,0 0,-9.6 -9.6,0 -9.6,0 0,9.6 -9.6,0 0,-9.6 0,-9.6 0,-9.6 9.6,0 0,9.6 9.6,0 9.6,0 0,-9.6 -9.6,0 0,-9.6 9.6,0 0,-9.6 -9.6,0 -9.6,0 0,9.6 -9.6,0 0,-9.6 -9.6,0 -9.6,0 0,9.6 9.6,0 0,9.6 0,9.6 -9.6,0 0,-9.6 -9.6,0 0,9.6 -9.6,0 0,-9.6 0,-9.6 9.6,0 0,-9.6 -9.6,0 0,-9.6 0,-9.6 9.6,0 0,9.6 9.6,0 9.6,0 0,-9.6 -9.6,0 0,-9.6 9.6,0 0,-9.6 -9.6,0 -9.6,0 0,9.6 -9.6,0 0,-9.6 0,-9.6 9.6,0 0,-9.6 -9.6,0 0,-9.6 0,-9.6 9.6,0 0,9.6 9.6,0 0,-9.6 9.6,0 0,9.6 0,9.6 -9.6,0 0,9.6 9.6,0 9.6,0 9.6,0 0,-9.6 -9.6,0 0,-9.6 0,-9.6 9.6,0 0,9.6 9.6,0 0,-9.6 9.6,0 0,9.6 0,9.6 -9.6,0 0,9.6 9.6,0 0,9.6 0,9.6 -9.6,0 0,-9.6 -9.6,0 -9.6,0 0,9.6 9.6,0 0,9.6 -9.6,0 0,9.6 9.6,0 9.6,0 0,-9.6 9.6,0 0,9.6 9.6,0 9.6,0 0,-9.6 -9.6,0 0,-9.6 0,-9.6 9.6,0 0,9.6 9.6,0 0,-9.6 9.6,0 0,9.6 0,9.6 -9.6,0 0,9.6 9.6,0 9.6,0 0,-9.6 9.6,0 0,9.6 9.6,0 9.6,0 0,-9.6 -9.6,0 0,-9.6 9.6,0 0,-9.6 -9.6,0 -9.6,0 0,9.6 -9.6,0 0,-9.6 0,-9.6 0,-9.6 9.6,0 0,9.6 9.6,0 9.6,0 0,-9.6 -9.6,0 0,-9.6 9.6,0 0,-9.6 -9.6,0 -9.6,0 0,9.6 -9.6,0 0,-9.6 -9.6,0 -9.6,0 0,9.6 9.6,0 0,9.6 0,9.6 -9.6,0 0,-9.6 -9.6,0 0,9.6 -9.6,0 0,-9.6 0,-9.6 9.6,0 0,-9.6 -9.6,0 0,-9.6 9.6,0 0,-9.6 -9.6,0 0,-9.6 0,-9.6 9.6,0 0,9.6 9.6,0 0,-9.6 9.6,0 0,9.6 0,9.6 -9.6,0 0,9.6 9.6,0 9.6,0 0,-9.6 9.6,0 0,9.6 9.6,0 9.6,0 0,-9.6 -9.6,0 0,-9.6 9.6,0 0,-9.6 -9.6,0 -9.6,0 0,9.6 -9.6,0 0,-9.6 m -48,-8.6 0,8.6 -9.6,0 0,9.6 9.6,0 0,9.6 0,9.6 -9.6,0 0,-9.6 -9.6,0 0,9.6 -9.6,0 0,-9.6 0,-9.6 9.6,0 0,-9.6 -9.6,0 -9.6,0 -9.6,0 0,9.6 9.6,0 0,9.6 0,9.6 -9.6,0 0,-9.6 -9.6,0 0,9.6 -9.6,0 0,-9.6 0,-9.6 9.6,0 0,-9.6 -9.6,0 0,-8.6"/>
  </g>
</svg>